<svg width="1024" height="1024" viewBox="0 0 1024 1024" fill="none" xmlns="http://www.w3.org/2000/svg">
<g clip-path="url(#clip0_1_2)">
<rect x="20" y="20" width="984" height="984" rx="44" fill="white" stroke="#2E79C7" stroke-width="40"/>
<path fill-rule="evenodd" clip-rule="evenodd" d="M512 639C498.745 639 488 649.745 488 663V912C488 925.255 498.745 936 512 936H912C925.255 936 936 925.255 936 912V663C936 649.745 925.255 639 912 639H512ZM735.233 843.022V841.055L733.35 841.491C733.973 842.01 734.601 842.52 735.233 843.022ZM735.233 843.022V890.611C743.262 894.774 753.074 897.846 763.976 899.928C774.878 902.009 786.772 903 798.665 903C810.559 903 821.461 901.91 832.364 899.63C843.266 897.351 852.186 893.584 860.115 888.728C868.143 883.475 874.982 876.834 878.946 867.914C882.911 858.994 885.983 849.083 885.983 836.198C885.983 827.179 884.596 819.349 881.92 812.411C879.244 805.474 875.378 799.527 870.026 794.571C864.971 789.318 859.124 784.66 852.186 780.695C845.248 776.731 837.319 772.568 828.399 768.802C824.345 767.143 820.748 765.523 817.182 763.917C814.995 762.932 812.82 761.952 810.559 760.972C805.405 758.395 800.945 755.818 797.674 753.241C794.007 750.565 791.232 747.79 789.25 744.916C787.267 741.943 786.276 738.672 786.276 735.005C786.276 731.635 787.158 728.562 788.952 725.787C790.746 723.012 793.214 720.732 796.386 718.75C799.557 716.768 803.522 715.281 808.279 714.191C812.938 713.101 818.091 712.605 824.137 712.605C828.3 712.605 832.661 712.913 837.022 713.537C841.581 714.161 846.239 715.123 850.898 716.411C855.556 717.7 860.115 719.285 864.773 721.268C869.134 723.25 873.198 725.53 876.667 728.106V681.524C869.134 678.649 860.809 676.469 851.889 675.081C842.969 673.694 833.057 673 821.164 673C809.27 673 798.368 674.288 787.466 676.766C776.563 679.244 767.643 683.209 759.714 688.66C751.686 694.012 745.839 700.553 740.883 709.473C736.225 717.799 733.945 727.314 733.945 739.207C733.945 754.074 738.207 766.958 746.83 776.87C755.353 787.772 768.634 795.701 785.483 803.63C791.419 806.039 796.758 808.447 801.952 810.791C802.743 811.148 803.53 811.503 804.315 811.856C810.261 814.532 815.217 817.308 819.182 820.182C823.443 823.056 826.813 826.228 829.093 829.597C831.571 832.967 832.859 836.932 832.859 841.491C832.859 844.663 832.086 847.636 830.579 850.411C829.073 853.186 826.714 855.565 823.543 857.547C820.371 859.529 816.506 861.115 811.649 862.305C806.991 863.395 801.738 863.989 794.8 863.989C783.898 863.989 772.995 862.106 763.084 858.34C752.943 854.837 743.659 849.704 735.233 843.022ZM715.411 719.147H651.979V900.522H601.432V719.147H538V678.511H715.411V719.147Z" fill="#2E79C7"/>
<path d="M391 20H633V231.055L601.256 195.034C591.303 183.739 573.697 183.739 563.744 195.034L512 253.75L460.256 195.034C450.303 183.739 432.697 183.739 422.744 195.034L391 231.055V20Z" stroke="#2E79C7" stroke-width="40" stroke-linejoin="round"/>
</g>
<defs>
<clipPath id="clip0_1_2">
<rect width="1024" height="1024" fill="white"/>
</clipPath>
</defs>
</svg>
